<?xml version="1.0" encoding="UTF-8" standalone="no"?>
<svg
   xmlns:dc="http://purl.org/dc/elements/1.1/"
   xmlns:cc="http://creativecommons.org/ns#"
   xmlns:rdf="http://www.w3.org/1999/02/22-rdf-syntax-ns#"
   xmlns:svg="http://www.w3.org/2000/svg"
   xmlns="http://www.w3.org/2000/svg"
   xmlns:sodipodi="http://sodipodi.sourceforge.net/DTD/sodipodi-0.dtd"
   xmlns:inkscape="http://www.inkscape.org/namespaces/inkscape"
   version="1.1"
   id="Capa_1"
   x="0px"
   y="0px"
   viewBox="0 0 4096 4096"
   xml:space="preserve"
   width="4096"
   height="4096"
   sodipodi:docname="barber-shop.svg"
   inkscape:version="0.92.4 (f8dce91, 2019-08-02)"><metadata
   id="metadata19"><rdf:RDF><cc:Work
       rdf:about=""><dc:format>image/svg+xml</dc:format><dc:type
         rdf:resource="http://purl.org/dc/dcmitype/StillImage" /><dc:title></dc:title></cc:Work></rdf:RDF></metadata><defs
   id="defs17">
		
	</defs><sodipodi:namedview
   pagecolor="#ffffff"
   bordercolor="#666666"
   borderopacity="1"
   objecttolerance="10"
   gridtolerance="10"
   guidetolerance="10"
   inkscape:pageopacity="0"
   inkscape:pageshadow="2"
   inkscape:window-width="1920"
   inkscape:window-height="1043"
   id="namedview15"
   showgrid="false"
   inkscape:zoom="0.081483008"
   inkscape:cx="-2150.3709"
   inkscape:cy="680.16065"
   inkscape:window-x="1920"
   inkscape:window-y="0"
   inkscape:window-maximized="1"
   inkscape:current-layer="Capa_1" /><rect
   style="fill:#7159c1;fill-opacity:1;stroke:#221fc1;stroke-opacity:1"
   id="rect836"
   width="4148.104"
   height="4123.5591"
   x="0"
   y="-3.014111" /> <flowRoot
   xml:space="preserve"
   id="flowRoot4541"
   style="fill:#ffffff;fill-opacity:1;stroke:none;font-family:sans-serif;font-style:normal;font-weight:normal;font-size:40px;line-height:1.25;letter-spacing:0px;word-spacing:0px;"><flowRegion
     id="flowRegion4543"
     style="fill:#ffffff;fill-opacity:1;"><rect
       id="rect4545"
       width="3276.7568"
       height="687.25983"
       x="539.98987"
       y="3175.5627"
       style="fill:#ffffff;fill-opacity:1;" /></flowRegion><flowPara
     id="flowPara4547"></flowPara></flowRoot><g
   style="fill:#ffffff;fill-opacity:1;stroke:#221fc1;stroke-opacity:1"
   id="g10"
   transform="matrix(4,0,0,4,1050.052,727.0398)">
	<g
   id="g6"
   style="fill:#ffffff;fill-opacity:1;stroke:#221fc1;stroke-opacity:1">
			<path
   d="M 256,0 C 114.844,0 0,114.844 0,256 0,397.156 114.844,512 256,512 397.156,512 512,397.156 512,256 512,114.844 397.156,0 256,0 Z m 148.762,218.822 -7.126,60.564 C 388.865,353.949 301.438,400.98 257.032,405.282 210.563,400.98 123.136,353.949 114.365,279.386 l -7.094,-60.324 C 85.666,192.408 85.324,161.348 85.333,159.928 c 0.031,-4.865 3.354,-9.083 8.063,-10.271 4.74,-1.177 9.646,0.958 11.969,5.24 0.302,0.5 9.615,15.771 37.177,15.771 14.229,0 20.104,-3.917 27.542,-8.875 8.323,-5.552 18.688,-12.458 39.375,-12.458 23.014,0 37.724,8.326 46.542,19.969 8.818,-11.643 23.527,-19.969 46.542,-19.969 20.688,0 31.052,6.906 39.375,12.458 7.438,4.958 13.313,8.875 27.542,8.875 27.563,0 36.875,-15.271 37.26,-15.927 2.438,-4.135 7.417,-6.229 12.042,-4.948 4.646,1.26 7.906,5.396 7.906,10.208 -0.001,0.548 -0.536,32.047 -21.906,58.821 z"
   data-original="#000000"
   class="active-path"
   data-old_color="#000000"
   id="path2"
   inkscape:connector-curvature="0"
   style="fill:#ffffff;fill-opacity:1;stroke:#221fc1;stroke-opacity:1" />
			<path
   d="M 256,230.909 C 244.536,245.229 224.335,256 197.823,256 c -12.374,0 -23.486,-1.608 -34.009,-3.941 5.456,18.725 17.193,46.608 38.853,46.608 34.552,0 43.552,-15.042 43.927,-15.688 1.948,-3.417 5.677,-5.896 9.625,-5.5 3.938,0.104 7.563,2.229 9.323,5.75 0.24,0.396 9.24,15.438 43.792,15.438 21.586,0 33.276,-27.508 38.757,-46.251 -10.022,2.212 -21.165,3.585 -33.913,3.585 C 287.665,256 267.464,245.229 256,230.909 Z"
   data-original="#000000"
   class="active-path"
   data-old_color="#000000"
   id="path4"
   inkscape:connector-curvature="0"
   style="fill:#ffffff;fill-opacity:1;stroke:#221fc1;stroke-opacity:1" />
		</g>
</g><text
   xml:space="preserve"
   style="font-style:normal;font-variant:normal;font-weight:normal;font-stretch:normal;font-size:548.66668701px;line-height:1.25;font-family:'Fira Code';-inkscape-font-specification:'Fira Code, Normal';font-variant-ligatures:normal;font-variant-caps:normal;font-variant-numeric:normal;font-feature-settings:normal;text-align:start;letter-spacing:0px;word-spacing:0px;writing-mode:lr-tb;text-anchor:start;fill:#ffffff;fill-opacity:1;stroke:none;stroke-width:4.11497259"
   x="764.73352"
   y="3470.6294"
   id="text4551"><tspan
     sodipodi:role="line"
     id="tspan4549"
     x="764.73352"
     y="3470.6294"
     style="font-style:normal;font-variant:normal;font-weight:normal;font-stretch:normal;font-size:548.66668701px;font-family:'Fira Code';-inkscape-font-specification:'Fira Code, Normal';font-variant-ligatures:normal;font-variant-caps:normal;font-variant-numeric:normal;font-feature-settings:normal;text-align:start;writing-mode:lr-tb;text-anchor:start;stroke-width:4.11497259">GOBARBER</tspan></text>
</svg>